# xmcd
#
# Track frame offsets:
#	150
#	19142
#	40942
#	61650
#	76477
#	87637
#	100157
#	115145
#	127052
#	141232
#	158890
#	179960
#	198877
#	208397
#	221827
#	233692
#	245795
#	263727
#	282015
#	296910
#
# Disc length: 4219 seconds
#
# Revision: 0
# Processed by: cddbd v1.5.2PL0 Copyright (c) Steve Scherf et al.
# Submitted via: EasyCDDAExtractor 10.0.2.1
#
DISCID=3b107914
DTITLE=Fafá de Belém - oOo
DYEAR=2000
DGENRE=MPB
TTITLE0=Foi Assim
TTITLE1=Meu Disfarce
TTITLE2=Bilhete
TTITLE3=Sob Medida
TTITLE4=Atrevida
TTITLE5=Menestrel das Alagoas
TTITLE6=Coração Aprendiz
TTITLE7=Sedução
TTITLE8=Meu Dilema
TTITLE9=Pauapixuna
TTITLE10=Ilusão a Toa
TTITLE11=Cavalgada
TTITLE12=Maria Solidária
TTITLE13=Raça
TTITLE14=Haragana
TTITLE15=Doce Magia
TTITLE16=Mamórias
TTITLE17=Que Me Venha Esse Homem
TTITLE18=Meu Homem
TTITLE19=Nos Bailes da Vida
EXTD=YEAR: 2000\n
EXTT0=
EXTT1=
EXTT2=
EXTT3=
EXTT4=
EXTT5=
EXTT6=
EXTT7=
EXTT8=
EXTT9=
EXTT10=
EXTT11=
EXTT12=
EXTT13=
EXTT14=
EXTT15=
EXTT16=
EXTT17=
EXTT18=
EXTT19=
PLAYORDER=
